<svg width="36" height="36" viewBox="0 0 36 36" fill="none" xmlns="http://www.w3.org/2000/svg">
<path d="M26.8594 0.105488C26.6484 0.154707 21.6 1.61018 15.6445 3.33283C8.0086 5.54768 4.66875 6.54611 4.31016 6.72189C2.96016 7.3758 2.07422 8.96486 2.20078 10.4696C2.22188 10.7438 2.4961 11.8055 2.86172 13.043L3.48047 15.1524L3.51563 24.0117C3.55782 33.7078 3.52266 33.0188 3.99375 33.9258C4.5211 34.9313 5.63203 35.7399 6.72891 35.9227C7.05938 35.9789 8.5711 36 11.6859 35.986L16.1719 35.9649L16.3547 35.775C16.6148 35.5149 16.6148 35.0789 16.3547 34.8188L16.1719 34.6289L11.5102 34.5938C6.55313 34.5516 6.68672 34.5656 6.11719 34.207C5.58985 33.8695 5.21719 33.3774 5.03438 32.7656C4.93594 32.4352 4.92188 31.7531 4.92188 27.443V22.5L18.6891 22.5141L32.4492 22.5352L32.4703 27.211C32.4773 29.8336 32.4563 32.0977 32.4211 32.3649C32.2945 33.2578 31.8164 33.9399 31.0219 34.3266L30.5508 34.5586L25.9102 34.5938C23.3578 34.6149 21.2133 34.657 21.15 34.6852C20.9602 34.7836 20.8125 35.0578 20.8125 35.318C20.8125 35.5922 21.0516 35.9016 21.3188 35.9649C21.4031 35.986 23.5688 35.993 26.1211 35.986C30.7336 35.9649 30.7617 35.9649 31.1766 35.8031C31.7602 35.5852 32.175 35.325 32.618 34.9172C33.1031 34.4602 33.4195 33.968 33.6586 33.2789L33.8555 32.7305V23.85V14.9625L33.6234 14.7586L33.3984 14.5547H21.3258C14.6883 14.5547 9.27422 14.5406 9.28828 14.5195C9.30938 14.5055 14.5125 12.9867 20.8547 11.1516C33.4266 7.50939 32.6953 7.74846 32.6953 7.22111C32.6953 6.84846 31.4578 2.68596 31.1836 2.13049C30.4313 0.604707 28.5047 -0.295293 26.8594 0.105488ZM28.7367 1.64533C29.2078 1.85627 29.7211 2.33439 29.9461 2.77736C30.0656 3.01643 31.0219 6.16643 31.0922 6.56721C31.1133 6.68674 30.9516 6.75002 29.7211 7.11564L28.3219 7.51643L27.3656 6.5883C26.8383 6.06799 25.6992 4.97111 24.8344 4.14846C23.9766 3.31877 23.2945 2.62268 23.3227 2.60158C23.3719 2.55939 26.4023 1.67346 27.1758 1.46955C27.5766 1.36408 28.2797 1.44143 28.7367 1.64533ZM24.1945 5.48439C25.5586 6.79221 26.6906 7.89611 26.7047 7.93127C26.7117 7.95939 25.8891 8.22658 24.8766 8.52189L23.0273 9.04924L22.1133 8.15627C21.6141 7.67111 20.482 6.57424 19.6031 5.73049C18.7172 4.88674 18 4.17658 18 4.15549C18 4.10627 21.4102 3.10783 21.593 3.1008C21.6563 3.09377 22.8234 4.16955 24.1945 5.48439ZM19.3219 7.41799C20.4891 8.53596 21.4172 9.47111 21.3891 9.49924C21.3328 9.55549 17.9156 10.5469 17.7891 10.5469C17.7469 10.5469 16.5727 9.45002 15.1805 8.10705L12.6492 5.66721L14.4984 5.13283L16.3477 4.59846L16.7766 4.98518C17.0086 5.20314 18.1547 6.29299 19.3219 7.41799ZM13.6406 8.57814C15.2438 10.111 16.1367 11.018 16.0805 11.0461C16.0383 11.0742 15.2016 11.3203 14.2242 11.6016L12.4523 12.1149L9.91407 9.66096C8.37422 8.18439 7.40391 7.20002 7.46016 7.17893C7.85391 7.04533 11.018 6.13127 11.0531 6.14533C11.0813 6.14533 12.2484 7.24221 13.6406 8.57814ZM8.36016 10.125C9.75235 11.4539 10.8844 12.5508 10.8773 12.5649C10.8 12.6352 4.7461 14.3297 4.70391 14.2945C4.67578 14.2594 4.42266 13.4438 4.14141 12.4805C3.69141 10.9477 3.62813 10.6524 3.62813 10.1602C3.62813 9.70314 3.66328 9.52736 3.80391 9.21096C4.00078 8.78205 4.32422 8.38127 4.66172 8.14221C4.91485 7.95939 5.625 7.65705 5.74453 7.68518C5.79375 7.69221 6.96797 8.78908 8.36016 10.125ZM11.0391 16.0102C11.0391 16.0313 10.3852 17.1844 9.5836 18.5766L8.12813 21.0938H6.525H4.92188V18.5274V15.961H7.98047C9.66094 15.961 11.0391 15.982 11.0391 16.0102ZM16.5727 16.0102C16.5516 16.0453 15.8977 17.1703 15.1172 18.5274C14.3367 19.8774 13.6758 21.0094 13.6477 21.0445C13.6195 21.0727 12.7336 21.0867 11.6859 21.0797L9.77344 21.0586L11.1516 18.668C11.9109 17.3531 12.5719 16.207 12.6281 16.1156C12.7266 15.961 12.7336 15.961 14.6672 15.961C15.7289 15.961 16.5867 15.982 16.5727 16.0102ZM22.0641 16.0242C22.057 16.0524 21.3961 17.2125 20.6016 18.5836L19.1602 21.0867L17.1984 21.0938H15.2438L15.3422 20.932C15.3984 20.8477 16.0734 19.6945 16.8328 18.3656L18.225 15.961H20.1586C21.2203 15.961 22.0781 15.9891 22.0641 16.0242ZM26.1422 18.5274L24.6586 21.0938H22.732C21.5227 21.0938 20.8125 21.0656 20.8266 21.0235C20.8406 20.9883 21.4945 19.8352 22.2891 18.4641L23.7305 15.961H25.6781H27.6188L26.1422 18.5274ZM32.4844 18.5274V21.0938H29.3836C27.682 21.0938 26.3039 21.0727 26.318 21.0375C26.4797 20.7492 29.0813 16.2352 29.1516 16.1156C29.25 15.961 29.2711 15.961 30.8672 15.961H32.4844V18.5274Z" fill="#83578F"/>
<path d="M16.3828 24.3141C16.2492 24.3774 16.1016 24.511 16.0523 24.6094C15.982 24.743 15.9609 25.6782 15.9609 28.5258V32.2735L16.1648 32.4985C16.5516 32.9344 16.5375 32.9414 20.1305 30.8672C22.5352 29.475 23.3789 28.9547 23.4562 28.8141C23.6039 28.5258 23.5758 28.2938 23.3648 28.0617C23.1609 27.8367 17.1 24.3141 16.7977 24.2367C16.6922 24.2086 16.5234 24.2367 16.3828 24.3141ZM19.8492 27.5625C20.6859 28.0477 21.368 28.4625 21.3539 28.4907C21.3398 28.5399 17.4656 30.7969 17.4023 30.7969C17.3812 30.7969 17.3672 29.7492 17.3672 28.4696V26.1422L17.8453 26.4164C18.1125 26.5641 19.0125 27.0774 19.8492 27.5625Z" fill="#83578F"/>
<path d="M18.3867 34.6711C17.6977 35.0719 18.0352 36.1125 18.8016 35.9719C19.5609 35.8313 19.5328 34.7344 18.7664 34.6219C18.6398 34.6078 18.4641 34.6289 18.3867 34.6711Z" fill="#83578F"/>
</svg>
